<svg width="235" height="201" viewBox="0 0 235 201" fill="none" xmlns="http://www.w3.org/2000/svg">
<g clip-path="url(#clip0_4_369)">
<path fill-rule="evenodd" clip-rule="evenodd" d="M13.8594 199.945C13.8685 199.793 13.8719 199.641 13.8594 199.487C13.8498 199.379 13.8259 199.269 13.8043 199.159C13.6716 198.486 13.3063 197.839 12.6812 197.247C12.0561 196.655 11.1768 196.118 10.1047 195.649C9.12585 195.214 7.99029 194.838 6.84544 194.528C5.70058 194.218 4.54222 193.974 3.52015 193.783C1.20973 193.445 -0.113599 193.214 0.00766912 193.149C0.135952 193.084 1.71686 193.195 4.45607 193.452C5.71348 193.613 7.1504 193.844 8.59617 194.156C10.0419 194.469 11.4886 194.865 12.7473 195.338C14.0721 195.842 15.1792 196.427 15.9625 197.069C16.7457 197.711 17.2101 198.409 17.3388 199.128C17.3598 199.245 17.3677 199.362 17.3718 199.477C17.3787 199.635 17.368 199.79 17.3498 199.945H13.8594H13.8594Z" fill="#00892C"/>
<path fill-rule="evenodd" clip-rule="evenodd" d="M25.3422 199.945C25.4167 199.795 25.4999 199.644 25.5624 199.492C25.9328 198.589 26.0504 197.712 25.9441 196.885C25.8208 195.917 25.3851 195.014 24.799 194.211C24.2129 193.407 23.4819 192.703 22.8025 192.118C22.123 191.533 21.5071 191.068 21.1289 190.742C20.7507 190.417 20.6079 190.23 20.85 190.205C21.092 190.181 21.6937 190.32 22.5235 190.61C23.3533 190.901 24.4176 191.344 25.5036 191.922C26.5897 192.5 27.6872 193.216 28.5865 194.047C29.4858 194.877 30.1765 195.822 30.4509 196.843C30.6839 197.714 30.6322 198.638 30.2454 199.585C30.196 199.706 30.1431 199.825 30.0839 199.945H25.3422V199.945Z" fill="#00892C"/>
<path fill-rule="evenodd" clip-rule="evenodd" d="M35.3527 199.945C36.2935 199.309 37.266 198.704 38.1604 198.137C39.1243 197.526 39.9951 196.955 40.704 196.432C41.1174 196.127 41.479 195.838 41.772 195.569C42.065 195.3 42.2868 195.052 42.4547 194.824C42.6191 194.599 42.7261 194.395 42.796 194.217C42.866 194.038 42.8958 193.887 42.9172 193.761C42.9385 193.635 42.9591 193.535 42.9942 193.467C43.0294 193.398 43.0846 193.361 43.1814 193.356C43.2782 193.351 43.4144 193.38 43.5668 193.443C43.7192 193.506 43.8916 193.603 44.0513 193.732C44.2109 193.861 44.3512 194.021 44.4477 194.212C44.5442 194.403 44.5866 194.622 44.5578 194.865C44.5303 195.111 44.438 195.381 44.2605 195.67C44.083 195.96 43.8261 196.269 43.5007 196.591C42.946 197.142 42.2034 197.737 41.3316 198.363C40.6245 198.871 39.8251 199.402 39.0303 199.945H35.3527Z" fill="#00892C"/>
<path fill-rule="evenodd" clip-rule="evenodd" d="M50.7459 199.945C50.7663 199.831 50.7937 199.719 50.812 199.604C50.8141 199.592 50.8102 199.58 50.812 199.569C50.961 198.597 51.0317 197.669 51.1159 196.82C51.2 195.972 51.3065 195.203 51.4594 194.558C51.6123 193.913 51.8099 193.392 52.054 193.031C52.2981 192.669 52.5815 192.469 52.8732 192.469C53.1649 192.469 53.4439 192.668 53.7056 193.028C53.9674 193.387 54.2158 193.906 54.4455 194.549C54.6753 195.193 54.8842 195.961 55.0137 196.815C55.1432 197.669 55.1902 198.61 55.0401 199.601C55.0384 199.612 55.0419 199.624 55.0401 199.635C55.0242 199.74 54.9946 199.842 54.9741 199.945H50.7459Z" fill="#00892C"/>
<path fill-rule="evenodd" clip-rule="evenodd" d="M61.8119 199.945C61.901 199.458 62.0906 198.991 62.3829 198.564C62.7371 198.045 63.2351 197.584 63.7879 197.208C64.3408 196.832 64.9396 196.54 65.4377 196.347C65.9357 196.153 66.3235 196.058 66.5073 196.075C66.691 196.091 66.6544 196.218 66.4892 196.43C66.3238 196.642 66.0416 196.941 65.764 197.313C65.4864 197.686 65.2195 198.131 65.0298 198.631C64.8758 199.037 64.7784 199.481 64.7125 199.945H61.8119H61.8119Z" fill="#00892C"/>
<path fill-rule="evenodd" clip-rule="evenodd" d="M98.7645 192.073C98.6553 192.073 98.4785 192.103 98.247 192.165C97.9825 192.235 97.6463 192.348 97.278 192.5C96.9098 192.651 96.512 192.842 96.1329 193.073C95.7538 193.305 95.3968 193.577 95.1199 193.884C94.8664 194.164 94.6854 194.474 94.5914 194.807C94.4974 195.14 94.4956 195.497 94.6024 195.87C94.7615 196.421 95.1284 197.006 95.7035 197.611C96.2786 198.216 97.0595 198.84 97.9497 199.472C98.1312 199.601 98.315 199.727 98.5002 199.853C98.5728 199.903 98.6475 199.951 98.7204 200H102.398C102.213 199.873 102.032 199.75 101.848 199.621C101.669 199.497 101.496 199.372 101.319 199.245C100.45 198.625 99.6652 198.022 99.0398 197.447C98.4143 196.872 97.9518 196.325 97.6744 195.81C97.486 195.462 97.3741 195.129 97.3441 194.819C97.314 194.509 97.3651 194.221 97.4652 193.956C97.6817 193.38 98.1511 192.918 98.4892 192.598C98.6583 192.439 98.7883 192.313 98.8526 192.225C98.9169 192.136 98.9111 192.086 98.8085 192.075C98.7957 192.074 98.7801 192.073 98.7645 192.073L98.7645 192.073Z" fill="#00892C"/>
<path fill-rule="evenodd" clip-rule="evenodd" d="M80.9519 192.128C80.912 192.126 80.8584 192.129 80.8199 192.142C80.7814 192.155 80.7633 192.18 80.754 192.197C80.7342 192.228 80.7324 192.267 80.754 192.313C80.7964 192.403 80.9198 192.524 81.097 192.668C81.4496 192.955 82.0443 193.349 82.7594 193.829C84.1711 194.777 86.0877 196.079 87.5752 197.614C88.2975 198.36 88.9013 199.163 89.3168 200H93.5784C93.1263 199.085 92.3649 198.213 91.441 197.414C90.5269 196.623 89.4529 195.903 88.3536 195.265C87.2543 194.628 86.1337 194.074 85.1079 193.618C84.0647 193.155 83.1333 192.796 82.4164 192.544C82.0528 192.416 81.7543 192.318 81.5192 192.249C81.3991 192.213 81.2981 192.188 81.2157 192.168C81.1623 192.15 81.099 192.148 81.0574 192.142C81.0159 192.137 80.9917 192.13 80.9519 192.128V192.128Z" fill="#00892C"/>
<path fill-rule="evenodd" clip-rule="evenodd" d="M73.2082 193.657C72.9843 193.673 73.0621 193.873 73.3513 194.219C73.6406 194.565 74.1373 195.059 74.7167 195.67C75.2961 196.281 75.9558 197.006 76.4564 197.816C76.8748 198.492 77.1808 199.228 77.2272 200H80.7176C80.6215 199.181 80.1959 198.407 79.6055 197.705C78.9036 196.87 77.9842 196.136 77.084 195.53C76.1838 194.925 75.3049 194.451 74.6176 194.129C73.9303 193.808 73.4321 193.64 73.2082 193.657Z" fill="#00892C"/>
<path fill-rule="evenodd" clip-rule="evenodd" d="M108.535 193.812C108.274 193.812 108.03 193.972 107.792 194.256C107.553 194.541 107.316 194.95 107.083 195.458C106.851 195.966 106.631 196.572 106.458 197.248C106.286 197.925 106.166 198.672 106.234 199.46C106.236 199.486 106.243 199.512 106.246 199.538C106.258 199.674 106.28 199.809 106.305 199.943H110.081C110.061 199.803 110.037 199.662 110.022 199.52C110.019 199.494 110.012 199.47 110.01 199.445C109.942 198.676 109.946 197.939 109.927 197.267C109.909 196.594 109.872 195.986 109.762 195.473C109.653 194.961 109.48 194.546 109.267 194.259C109.053 193.972 108.795 193.812 108.535 193.812V193.812Z" fill="#00892C"/>
<path fill-rule="evenodd" clip-rule="evenodd" d="M112 194.45C111.768 194.466 111.786 194.638 111.945 194.935C112.103 195.232 112.403 195.654 112.715 196.176C113.027 196.698 113.343 197.321 113.596 198.016C113.819 198.628 113.988 199.298 114.114 200H117.637C117.492 199.272 117.22 198.574 116.822 197.939C116.378 197.228 115.788 196.594 115.149 196.07C114.51 195.546 113.824 195.133 113.255 194.855C112.685 194.577 112.231 194.434 112 194.45Z" fill="#00892C"/>
<path d="M235 198.996H9.91179V200H235V198.996Z" fill="#00892C"/>
<path fill-rule="evenodd" clip-rule="evenodd" d="M13.8594 199.945C13.8685 199.793 13.8719 199.641 13.8594 199.487C13.8498 199.379 13.8259 199.269 13.8043 199.159C13.6716 198.486 13.3063 197.839 12.6812 197.247C12.0561 196.655 11.1768 196.118 10.1047 195.649C9.12585 195.214 7.99029 194.838 6.84544 194.528C5.70058 194.218 4.54222 193.974 3.52015 193.783C1.20973 193.445 -0.113599 193.214 0.00766912 193.149C0.135952 193.084 1.71686 193.195 4.45607 193.452C5.71348 193.613 7.1504 193.844 8.59617 194.156C10.0419 194.469 11.4886 194.865 12.7473 195.338C14.0721 195.842 15.1792 196.427 15.9625 197.069C16.7457 197.711 17.2101 198.409 17.3388 199.128C17.3598 199.245 17.3677 199.362 17.3718 199.477C17.3787 199.635 17.368 199.79 17.3498 199.945H13.8594H13.8594Z" fill="#00892C"/>
<path fill-rule="evenodd" clip-rule="evenodd" d="M25.3422 199.945C25.4167 199.795 25.4999 199.644 25.5624 199.492C25.9328 198.589 26.0504 197.712 25.9441 196.885C25.8208 195.917 25.3851 195.014 24.799 194.211C24.2129 193.407 23.4819 192.703 22.8025 192.118C22.123 191.533 21.5071 191.068 21.1289 190.742C20.7507 190.417 20.6079 190.23 20.85 190.205C21.092 190.181 21.6937 190.32 22.5235 190.61C23.3533 190.901 24.4176 191.344 25.5036 191.922C26.5897 192.5 27.6872 193.216 28.5865 194.047C29.4858 194.877 30.1765 195.822 30.4509 196.843C30.6839 197.714 30.6322 198.638 30.2454 199.585C30.196 199.706 30.1431 199.825 30.0839 199.945H25.3422V199.945Z" fill="#00892C"/>
<path fill-rule="evenodd" clip-rule="evenodd" d="M35.3527 199.945C36.2935 199.309 37.266 198.704 38.1604 198.137C39.1243 197.526 39.9951 196.955 40.704 196.432C41.1174 196.127 41.479 195.838 41.772 195.569C42.065 195.3 42.2868 195.052 42.4547 194.824C42.6191 194.599 42.7261 194.395 42.796 194.217C42.866 194.038 42.8958 193.887 42.9172 193.761C42.9385 193.635 42.9591 193.535 42.9942 193.467C43.0294 193.398 43.0846 193.361 43.1814 193.356C43.2782 193.351 43.4144 193.38 43.5668 193.443C43.7192 193.506 43.8916 193.603 44.0513 193.732C44.2109 193.861 44.3512 194.021 44.4477 194.212C44.5442 194.403 44.5866 194.622 44.5578 194.865C44.5303 195.111 44.438 195.381 44.2605 195.67C44.083 195.96 43.8261 196.269 43.5007 196.591C42.946 197.142 42.2034 197.737 41.3316 198.363C40.6245 198.871 39.8251 199.402 39.0303 199.945H35.3527Z" fill="#00892C"/>
<path fill-rule="evenodd" clip-rule="evenodd" d="M50.7459 199.945C50.7663 199.831 50.7937 199.719 50.812 199.604C50.8141 199.592 50.8102 199.58 50.812 199.569C50.961 198.597 51.0317 197.669 51.1159 196.82C51.2 195.972 51.3065 195.203 51.4594 194.558C51.6123 193.913 51.8099 193.392 52.054 193.031C52.2981 192.669 52.5815 192.469 52.8732 192.469C53.1649 192.469 53.4439 192.668 53.7056 193.028C53.9674 193.387 54.2158 193.906 54.4455 194.549C54.6753 195.193 54.8842 195.961 55.0137 196.815C55.1432 197.669 55.1902 198.61 55.0401 199.601C55.0384 199.612 55.0419 199.624 55.0401 199.635C55.0242 199.74 54.9946 199.842 54.9741 199.945H50.7459Z" fill="#00892C"/>
<path fill-rule="evenodd" clip-rule="evenodd" d="M61.8119 199.945C61.901 199.458 62.0906 198.991 62.3829 198.564C62.7371 198.045 63.2351 197.584 63.7879 197.208C64.3408 196.832 64.9396 196.54 65.4377 196.347C65.9357 196.153 66.3235 196.058 66.5073 196.075C66.691 196.091 66.6544 196.218 66.4892 196.43C66.3238 196.642 66.0416 196.941 65.764 197.313C65.4864 197.686 65.2195 198.131 65.0298 198.631C64.8758 199.037 64.7784 199.481 64.7125 199.945H61.8119H61.8119Z" fill="#00892C"/>
<path fill-rule="evenodd" clip-rule="evenodd" d="M98.7645 192.073C98.6553 192.073 98.4785 192.103 98.247 192.165C97.9825 192.235 97.6463 192.348 97.278 192.5C96.9098 192.651 96.512 192.842 96.1329 193.073C95.7538 193.305 95.3968 193.577 95.1199 193.884C94.8664 194.164 94.6854 194.474 94.5914 194.807C94.4974 195.14 94.4956 195.497 94.6024 195.87C94.7615 196.421 95.1284 197.006 95.7035 197.611C96.2786 198.216 97.0595 198.84 97.9497 199.472C98.1312 199.601 98.315 199.727 98.5002 199.853C98.5728 199.903 98.6475 199.951 98.7204 200H102.398C102.213 199.873 102.032 199.75 101.848 199.621C101.669 199.497 101.496 199.372 101.319 199.245C100.45 198.625 99.6652 198.022 99.0398 197.447C98.4143 196.872 97.9518 196.325 97.6744 195.81C97.486 195.462 97.3741 195.129 97.3441 194.819C97.314 194.509 97.3651 194.221 97.4652 193.956C97.6817 193.38 98.1511 192.918 98.4892 192.598C98.6583 192.439 98.7883 192.313 98.8526 192.225C98.9169 192.136 98.9111 192.086 98.8085 192.075C98.7957 192.074 98.7801 192.073 98.7645 192.073L98.7645 192.073Z" fill="#00892C"/>
<path fill-rule="evenodd" clip-rule="evenodd" d="M80.9519 192.128C80.912 192.126 80.8584 192.129 80.8199 192.142C80.7814 192.155 80.7633 192.18 80.754 192.197C80.7342 192.228 80.7324 192.267 80.754 192.313C80.7964 192.403 80.9198 192.524 81.097 192.668C81.4496 192.955 82.0443 193.349 82.7594 193.829C84.1711 194.777 86.0877 196.079 87.5752 197.614C88.2975 198.36 88.9013 199.163 89.3168 200H93.5784C93.1263 199.085 92.3649 198.213 91.441 197.414C90.5269 196.623 89.4529 195.903 88.3536 195.265C87.2543 194.628 86.1337 194.074 85.1079 193.618C84.0647 193.155 83.1333 192.796 82.4164 192.544C82.0528 192.416 81.7543 192.318 81.5192 192.249C81.3991 192.213 81.2981 192.188 81.2157 192.168C81.1623 192.15 81.099 192.148 81.0574 192.142C81.0159 192.137 80.9917 192.13 80.9519 192.128V192.128Z" fill="#00892C"/>
<path fill-rule="evenodd" clip-rule="evenodd" d="M73.2082 193.657C72.9843 193.673 73.0621 193.873 73.3513 194.219C73.6406 194.565 74.1373 195.059 74.7167 195.67C75.2961 196.281 75.9558 197.006 76.4564 197.816C76.8748 198.492 77.1808 199.228 77.2272 200H80.7176C80.6215 199.181 80.1959 198.407 79.6055 197.705C78.9036 196.87 77.9842 196.136 77.084 195.53C76.1838 194.925 75.3049 194.451 74.6176 194.129C73.9303 193.808 73.4321 193.64 73.2082 193.657Z" fill="#00892C"/>
<path fill-rule="evenodd" clip-rule="evenodd" d="M108.535 193.812C108.274 193.812 108.03 193.972 107.792 194.256C107.553 194.541 107.316 194.95 107.083 195.458C106.851 195.966 106.631 196.572 106.458 197.248C106.286 197.925 106.166 198.672 106.234 199.46C106.236 199.486 106.243 199.512 106.246 199.538C106.258 199.674 106.28 199.809 106.305 199.943H110.081C110.061 199.803 110.037 199.662 110.022 199.52C110.019 199.494 110.012 199.47 110.01 199.445C109.942 198.676 109.946 197.939 109.927 197.267C109.909 196.594 109.872 195.986 109.762 195.473C109.653 194.961 109.48 194.546 109.267 194.259C109.053 193.972 108.795 193.812 108.535 193.812V193.812Z" fill="#00892C"/>
<path fill-rule="evenodd" clip-rule="evenodd" d="M112 194.45C111.768 194.466 111.786 194.638 111.945 194.935C112.103 195.232 112.403 195.654 112.715 196.176C113.027 196.698 113.343 197.321 113.596 198.016C113.819 198.628 113.988 199.298 114.114 200H117.637C117.492 199.272 117.22 198.574 116.822 197.939C116.378 197.228 115.788 196.594 115.149 196.07C114.51 195.546 113.824 195.133 113.255 194.855C112.685 194.577 112.231 194.434 112 194.45Z" fill="#00892C"/>
<path fill-rule="evenodd" clip-rule="evenodd" d="M16.6994 199.172C16.7088 199.016 16.7123 198.86 16.6994 198.702C16.6896 198.59 16.6651 198.477 16.6429 198.365C16.5066 197.674 16.1315 197.009 15.4895 196.402C14.8476 195.794 13.9445 195.241 12.8435 194.76C11.8383 194.313 10.6721 193.927 9.49642 193.609C8.3207 193.29 7.13111 193.04 6.08149 192.844C3.70879 192.497 2.34978 192.259 2.47432 192.192C2.60606 192.126 4.22959 192.24 7.04264 192.504C8.33394 192.67 9.8096 192.907 11.2943 193.227C12.7791 193.548 14.2648 193.955 15.5574 194.441C16.9179 194.958 18.0548 195.559 18.8592 196.218C19.6636 196.878 20.1405 197.595 20.2727 198.333C20.2942 198.453 20.3023 198.573 20.3066 198.692C20.3136 198.854 20.3026 199.013 20.284 199.172H16.6994H16.6994Z" fill="#00892C"/>
<path fill-rule="evenodd" clip-rule="evenodd" d="M28.4917 199.172C28.5683 199.018 28.6537 198.863 28.7179 198.707C29.0983 197.779 29.2191 196.879 29.1099 196.029C28.9833 195.035 28.5358 194.109 27.9339 193.283C27.332 192.457 26.5814 191.734 25.8836 191.134C25.1858 190.534 24.5533 190.056 24.1649 189.721C23.7765 189.387 23.6298 189.195 23.8784 189.17C24.1271 189.145 24.7449 189.288 25.5971 189.586C26.4493 189.884 27.5423 190.339 28.6576 190.933C29.7729 191.527 30.9 192.262 31.8236 193.115C32.7471 193.968 33.4564 194.938 33.7382 195.987C33.9774 196.88 33.9244 197.829 33.5272 198.802C33.4764 198.927 33.4221 199.049 33.3613 199.172H28.4917V199.172Z" fill="#00892C"/>
<path fill-rule="evenodd" clip-rule="evenodd" d="M38.7721 199.172C39.7384 198.519 40.737 197.898 41.6556 197.315C42.6454 196.687 43.5397 196.102 44.2677 195.565C44.6922 195.251 45.0636 194.954 45.3645 194.678C45.6654 194.402 45.8932 194.147 46.0656 193.913C46.2344 193.682 46.3443 193.472 46.4161 193.289C46.488 193.106 46.5186 192.951 46.5405 192.821C46.5625 192.692 46.5836 192.59 46.6197 192.519C46.6558 192.449 46.7125 192.41 46.8119 192.405C46.9113 192.4 47.0511 192.43 47.2077 192.495C47.3642 192.559 47.5413 192.659 47.7052 192.792C47.8691 192.924 48.0132 193.088 48.1123 193.284C48.2114 193.48 48.255 193.706 48.2254 193.955C48.1971 194.208 48.1023 194.485 47.9201 194.782C47.7378 195.079 47.4739 195.397 47.1398 195.728C46.5701 196.294 45.8076 196.905 44.9122 197.548C44.1861 198.069 43.3651 198.614 42.5489 199.172H38.7721V199.172Z" fill="#00892C"/>
<path fill-rule="evenodd" clip-rule="evenodd" d="M54.5803 199.172C54.6013 199.055 54.6294 198.94 54.6481 198.821C54.6503 198.81 54.6464 198.798 54.6481 198.786C54.8012 197.787 54.8738 196.835 54.9602 195.963C55.0466 195.092 55.156 194.302 55.313 193.64C55.47 192.978 55.673 192.442 55.9236 192.071C56.1743 191.7 56.4653 191.495 56.7649 191.495C57.0645 191.495 57.351 191.699 57.6198 192.068C57.8886 192.437 58.1437 192.971 58.3797 193.631C58.6156 194.292 58.8301 195.08 58.9631 195.957C59.0961 196.834 59.1444 197.801 58.9903 198.818C58.9885 198.83 58.992 198.842 58.9903 198.854C58.9739 198.961 58.9435 199.066 58.9224 199.172H54.5803H54.5803Z" fill="#00892C"/>
<path fill-rule="evenodd" clip-rule="evenodd" d="M65.9445 199.172C66.0361 198.672 66.2308 198.193 66.531 197.753C66.8947 197.221 67.4061 196.748 67.9739 196.361C68.5416 195.975 69.1566 195.675 69.6681 195.477C70.1796 195.278 70.5778 195.181 70.7665 195.197C70.9553 195.214 70.9177 195.344 70.7479 195.562C70.5782 195.78 70.2883 196.087 70.0032 196.469C69.7181 196.852 69.444 197.309 69.2492 197.823C69.091 198.24 68.991 198.695 68.9234 199.172H65.9446H65.9445Z" fill="#00892C"/>
<path fill-rule="evenodd" clip-rule="evenodd" d="M103.893 191.088C103.781 191.087 103.6 191.118 103.362 191.182C103.09 191.255 102.745 191.37 102.367 191.526C101.989 191.682 101.58 191.878 101.191 192.115C100.801 192.353 100.435 192.633 100.15 192.947C99.8901 193.236 99.7042 193.553 99.6077 193.895C99.5112 194.238 99.5093 194.604 99.619 194.987C99.7824 195.553 100.159 196.153 100.75 196.775C101.34 197.396 102.142 198.038 103.057 198.686C103.243 198.819 103.432 198.948 103.622 199.077C103.696 199.128 103.773 199.178 103.848 199.229H107.625C107.435 199.098 107.249 198.972 107.059 198.84C106.877 198.712 106.699 198.583 106.517 198.454C105.624 197.817 104.818 197.197 104.176 196.607C103.534 196.016 103.059 195.454 102.774 194.925C102.58 194.568 102.465 194.226 102.435 193.908C102.404 193.589 102.456 193.293 102.559 193.021C102.781 192.43 103.263 191.956 103.611 191.627C103.784 191.463 103.918 191.334 103.984 191.244C104.05 191.153 104.044 191.101 103.939 191.09C103.925 191.089 103.909 191.088 103.893 191.088L103.893 191.088Z" fill="#00892C"/>
<path fill-rule="evenodd" clip-rule="evenodd" d="M85.6005 191.144C85.5596 191.142 85.5046 191.146 85.465 191.159C85.4255 191.172 85.4069 191.198 85.3973 191.215C85.377 191.247 85.3752 191.287 85.3973 191.334C85.4409 191.426 85.5676 191.551 85.7496 191.699C86.1117 191.993 86.7224 192.398 87.4568 192.892C88.9065 193.865 90.8748 195.201 92.4024 196.778C93.1442 197.544 93.7642 198.369 94.1909 199.229H98.5674C98.1031 198.289 97.3212 197.394 96.3724 196.573C95.4337 195.761 94.3308 195.021 93.2018 194.366C92.0728 193.711 90.9221 193.143 89.8686 192.675C88.7973 192.199 87.8407 191.83 87.1045 191.571C86.7311 191.44 86.4246 191.34 86.1832 191.269C86.0598 191.232 85.9561 191.206 85.8715 191.186C85.8166 191.167 85.7516 191.165 85.7089 191.159C85.6663 191.153 85.6415 191.146 85.6005 191.144V191.144Z" fill="#00892C"/>
<path fill-rule="evenodd" clip-rule="evenodd" d="M77.6481 192.714C77.4182 192.731 77.4981 192.936 77.7951 193.291C78.0921 193.647 78.6022 194.155 79.1973 194.782C79.7923 195.409 80.4698 196.154 80.9839 196.985C81.4135 197.68 81.7278 198.436 81.7754 199.229H85.36C85.2613 198.387 84.8242 197.592 84.2179 196.871C83.497 196.015 82.5529 195.26 81.6284 194.638C80.704 194.017 79.8013 193.53 79.0955 193.2C78.3897 192.87 77.8781 192.697 77.6481 192.714V192.714Z" fill="#00892C"/>
<path fill-rule="evenodd" clip-rule="evenodd" d="M113.927 192.874C113.66 192.874 113.409 193.038 113.164 193.33C112.919 193.622 112.675 194.042 112.437 194.564C112.198 195.086 111.971 195.708 111.794 196.403C111.617 197.097 111.495 197.865 111.564 198.674C111.566 198.701 111.573 198.727 111.576 198.754C111.589 198.893 111.612 199.033 111.637 199.17H115.515C115.494 199.026 115.469 198.882 115.454 198.735C115.452 198.709 115.444 198.684 115.442 198.658C115.372 197.869 115.376 197.112 115.357 196.421C115.338 195.731 115.3 195.106 115.187 194.58C115.075 194.054 114.897 193.627 114.679 193.333C114.46 193.038 114.195 192.874 113.927 192.874Z" fill="#00892C"/>
<path fill-rule="evenodd" clip-rule="evenodd" d="M117.485 193.529C117.247 193.545 117.266 193.722 117.429 194.027C117.591 194.332 117.9 194.766 118.22 195.302C118.541 195.838 118.865 196.477 119.125 197.191C119.354 197.819 119.527 198.507 119.656 199.229H123.275C123.126 198.481 122.846 197.764 122.438 197.112C121.982 196.382 121.376 195.731 120.719 195.193C120.063 194.655 119.359 194.23 118.774 193.945C118.189 193.66 117.723 193.513 117.485 193.529V193.529Z" fill="#00892C"/>
<path fill-rule="evenodd" clip-rule="evenodd" d="M23.7767 199.411C23.7848 199.277 23.7878 199.143 23.7767 199.006C23.7682 198.91 23.7471 198.813 23.728 198.716C23.6105 198.12 23.2871 197.547 22.7338 197.023C22.1804 196.499 21.4021 196.023 20.453 195.608C19.5865 195.223 18.5813 194.89 17.5679 194.616C16.5544 194.341 15.529 194.126 14.6243 193.956C12.5791 193.658 11.4076 193.453 11.515 193.395C11.6285 193.338 13.028 193.436 15.4528 193.664C16.5658 193.806 17.8378 194.011 19.1176 194.287C20.3975 194.564 21.6781 194.914 22.7923 195.333C23.965 195.779 24.945 196.297 25.6384 196.865C26.3318 197.434 26.7428 198.052 26.8568 198.688C26.8754 198.791 26.8824 198.895 26.886 198.997C26.892 199.137 26.8825 199.274 26.8665 199.411H23.7767H23.7767Z" fill="#00892C"/>
<path fill-rule="evenodd" clip-rule="evenodd" d="M33.9414 199.411C34.0075 199.278 34.0811 199.145 34.1364 199.01C34.4643 198.211 34.5684 197.435 34.4742 196.702C34.3652 195.845 33.9794 195.047 33.4606 194.335C32.9418 193.623 32.2947 193 31.6932 192.483C31.0918 191.965 30.5466 191.553 30.2118 191.265C29.877 190.977 29.7506 190.812 29.9649 190.79C30.1792 190.768 30.7118 190.891 31.4463 191.148C32.1809 191.405 33.123 191.797 34.0844 192.309C35.0458 192.821 36.0173 193.455 36.8134 194.19C37.6095 194.925 38.2209 195.762 38.4638 196.665C38.67 197.436 38.6243 198.254 38.2819 199.093C38.2381 199.2 38.1913 199.305 38.1389 199.411H33.9414V199.411Z" fill="#00892C"/>
<path fill-rule="evenodd" clip-rule="evenodd" d="M42.8029 199.411C43.6358 198.849 44.4966 198.313 45.2884 197.811C46.1416 197.27 46.9125 196.765 47.54 196.302C47.906 196.031 48.226 195.776 48.4854 195.538C48.7448 195.3 48.9411 195.08 49.0897 194.878C49.2352 194.679 49.33 194.498 49.3919 194.34C49.4538 194.183 49.4802 194.048 49.4991 193.937C49.518 193.826 49.5362 193.737 49.5673 193.677C49.5985 193.616 49.6473 193.583 49.733 193.579C49.8188 193.574 49.9393 193.6 50.0742 193.655C50.2091 193.711 50.3618 193.797 50.5031 193.912C50.6444 194.026 50.7685 194.167 50.854 194.336C50.9394 194.505 50.977 194.699 50.9514 194.915C50.9271 195.132 50.8454 195.371 50.6883 195.627C50.5311 195.883 50.3037 196.158 50.0157 196.443C49.5247 196.93 48.8673 197.457 48.0955 198.011C47.4697 198.461 46.762 198.931 46.0584 199.411H42.8029V199.411Z" fill="#00892C"/>
<path fill-rule="evenodd" clip-rule="evenodd" d="M56.4292 199.411C56.4473 199.311 56.4715 199.211 56.4877 199.109C56.4895 199.099 56.4863 199.088 56.4877 199.078C56.6197 198.218 56.6823 197.396 56.7567 196.645C56.8312 195.894 56.9255 195.214 57.0608 194.643C57.1962 194.072 57.3711 193.61 57.5872 193.291C57.8032 192.971 58.0541 192.794 58.3123 192.794C58.5706 192.794 58.8175 192.97 59.0492 193.288C59.2809 193.606 59.5008 194.066 59.7042 194.635C59.9076 195.204 60.0925 195.884 60.2071 196.64C60.3218 197.396 60.3634 198.23 60.2305 199.107C60.2291 199.117 60.232 199.127 60.2305 199.137C60.2165 199.23 60.1903 199.32 60.1721 199.411H56.4292H56.4292Z" fill="#00892C"/>
<path fill-rule="evenodd" clip-rule="evenodd" d="M66.225 199.411C66.3038 198.98 66.4717 198.567 66.7305 198.188C67.044 197.73 67.4848 197.322 67.9742 196.988C68.4636 196.655 68.9937 196.397 69.4346 196.226C69.8755 196.055 70.2187 195.971 70.3814 195.985C70.5441 196 70.5117 196.112 70.3654 196.3C70.2191 196.488 69.9692 196.752 69.7235 197.082C69.4777 197.411 69.2414 197.806 69.0735 198.248C68.9372 198.608 68.851 199 68.7927 199.411H66.225H66.225Z" fill="#00892C"/>
<path fill-rule="evenodd" clip-rule="evenodd" d="M98.9361 192.443C98.8394 192.442 98.6828 192.469 98.4779 192.524C98.2438 192.587 97.9462 192.686 97.6202 192.821C97.2942 192.955 96.9421 193.124 96.6065 193.328C96.2709 193.533 95.9549 193.774 95.7098 194.046C95.4854 194.294 95.3251 194.568 95.2419 194.863C95.1587 195.158 95.1571 195.474 95.2517 195.804C95.3926 196.291 95.7173 196.809 96.2264 197.345C96.7355 197.881 97.4268 198.433 98.2148 198.993C98.3754 199.107 98.5382 199.218 98.7021 199.33C98.7663 199.374 98.8324 199.416 98.897 199.46H102.153C101.989 199.348 101.828 199.238 101.665 199.125C101.508 199.014 101.354 198.904 101.197 198.792C100.428 198.243 99.7333 197.709 99.1797 197.2C98.6261 196.691 98.2166 196.207 97.9711 195.751C97.8043 195.443 97.7053 195.148 97.6787 194.874C97.6521 194.599 97.6973 194.344 97.7859 194.11C97.9775 193.599 98.393 193.191 98.6924 192.908C98.842 192.767 98.9571 192.655 99.014 192.577C99.0709 192.499 99.0658 192.454 98.975 192.445C98.9637 192.444 98.9498 192.443 98.936 192.443L98.9361 192.443Z" fill="#00892C"/>
<path fill-rule="evenodd" clip-rule="evenodd" d="M83.168 192.491C83.1327 192.49 83.0853 192.493 83.0512 192.504C83.0171 192.516 83.0011 192.537 82.9928 192.553C82.9753 192.58 82.9738 192.615 82.9928 192.655C83.0304 192.735 83.1396 192.842 83.2965 192.97C83.6086 193.224 84.1351 193.572 84.7681 193.998C86.0177 194.836 87.7143 195.989 89.0311 197.348C89.6705 198.008 90.205 198.719 90.5728 199.46H94.3452C93.945 198.65 93.271 197.878 92.4531 197.171C91.644 196.471 90.6933 195.833 89.7201 195.269C88.747 194.704 87.7551 194.214 86.847 193.811C85.9236 193.401 85.099 193.083 84.4644 192.86C84.1425 192.746 83.8783 192.66 83.6702 192.599C83.5639 192.567 83.4745 192.544 83.4016 192.527C83.3543 192.511 83.2982 192.509 83.2614 192.504C83.2247 192.499 83.2033 192.493 83.168 192.491V192.491Z" fill="#00892C"/>
<path fill-rule="evenodd" clip-rule="evenodd" d="M76.3132 193.845C76.115 193.86 76.1839 194.036 76.4399 194.342C76.696 194.649 77.1356 195.086 77.6486 195.627C78.1615 196.168 78.7454 196.81 79.1886 197.526C79.5589 198.125 79.8298 198.777 79.8709 199.46H82.9607C82.8756 198.735 82.4989 198.049 81.9762 197.428C81.3548 196.69 80.541 196.039 79.7442 195.503C78.9473 194.967 78.1692 194.548 77.5608 194.263C76.9524 193.979 76.5114 193.83 76.3132 193.845V193.845Z" fill="#00892C"/>
<path fill-rule="evenodd" clip-rule="evenodd" d="M107.585 193.982C107.354 193.982 107.138 194.124 106.927 194.376C106.716 194.627 106.506 194.989 106.3 195.439C106.095 195.889 105.899 196.426 105.747 197.024C105.594 197.623 105.488 198.285 105.548 198.982C105.55 199.005 105.556 199.028 105.558 199.051C105.57 199.171 105.589 199.291 105.611 199.41H108.953C108.936 199.286 108.914 199.161 108.901 199.035C108.899 199.012 108.893 198.991 108.891 198.968C108.831 198.288 108.834 197.636 108.818 197.04C108.801 196.445 108.768 195.907 108.671 195.453C108.575 194.999 108.421 194.632 108.233 194.378C108.044 194.124 107.816 193.982 107.585 193.982H107.585Z" fill="#00892C"/>
<path fill-rule="evenodd" clip-rule="evenodd" d="M110.652 194.547C110.447 194.561 110.463 194.713 110.603 194.976C110.744 195.239 111.009 195.613 111.286 196.075C111.562 196.537 111.841 197.089 112.065 197.704C112.263 198.245 112.412 198.838 112.523 199.46H115.642C115.514 198.815 115.273 198.198 114.921 197.635C114.528 197.006 114.005 196.445 113.44 195.981C112.874 195.518 112.267 195.152 111.763 194.906C111.259 194.66 110.857 194.533 110.652 194.547Z" fill="#00892C"/>
<path fill-rule="evenodd" clip-rule="evenodd" d="M74.1823 199.411C74.1163 199.278 74.0427 199.145 73.9874 199.01C73.6595 198.211 73.5553 197.435 73.6495 196.702C73.7586 195.845 74.1443 195.047 74.6632 194.335C75.182 193.623 75.829 193 76.4305 192.483C77.032 191.965 77.5772 191.553 77.912 191.265C78.2468 190.977 78.3732 190.812 78.1589 190.79C77.9446 190.768 77.412 190.891 76.6774 191.148C75.9429 191.405 75.0008 191.797 74.0394 192.309C73.078 192.821 72.1064 193.455 71.3104 194.19C70.5143 194.925 69.9029 195.762 69.66 196.665C69.4537 197.436 69.4995 198.254 69.8419 199.093C69.8857 199.2 69.9325 199.305 69.9848 199.411H74.1823V199.411Z" fill="#00892C"/>
<path fill-rule="evenodd" clip-rule="evenodd" d="M61.6877 192.443C61.7843 192.442 61.9409 192.469 62.1458 192.524C62.38 192.587 62.6776 192.686 63.0035 192.821C63.3295 192.955 63.6817 193.124 64.0172 193.328C64.3528 193.533 64.6688 193.774 64.914 194.046C65.1384 194.294 65.2986 194.568 65.3818 194.863C65.465 195.158 65.4666 195.474 65.3721 195.804C65.2312 196.291 64.9065 196.809 64.3974 197.345C63.8883 197.881 63.197 198.433 62.409 198.993C62.2483 199.107 62.0856 199.218 61.9216 199.33C61.8574 199.374 61.7913 199.416 61.7267 199.46H58.4712C58.6352 199.348 58.7956 199.238 58.9585 199.125C59.1162 199.014 59.2695 198.904 59.4264 198.792C60.196 198.243 60.8904 197.709 61.444 197.2C61.9977 196.691 62.4071 196.207 62.6527 195.751C62.8195 195.443 62.9185 195.148 62.9451 194.874C62.9717 194.599 62.9265 194.344 62.8379 194.11C62.6462 193.599 62.2307 193.191 61.9314 192.908C61.7817 192.767 61.6666 192.655 61.6097 192.577C61.5528 192.499 61.558 192.454 61.6487 192.445C61.6601 192.444 61.6739 192.443 61.6877 192.443L61.6877 192.443Z" fill="#00892C"/>
<path fill-rule="evenodd" clip-rule="evenodd" d="M107.405 192.877C107.441 192.876 107.488 192.878 107.522 192.89C107.556 192.901 107.572 192.923 107.581 192.938C107.598 192.965 107.6 193 107.581 193.041C107.543 193.12 107.434 193.228 107.277 193.355C106.965 193.609 106.438 193.958 105.805 194.383C104.556 195.222 102.859 196.374 101.542 197.733C100.903 198.394 100.368 199.104 100.001 199.846H96.2282C96.6284 199.036 97.3024 198.264 98.1203 197.557C98.9294 196.857 99.8801 196.219 100.853 195.654C101.826 195.09 102.818 194.6 103.726 194.197C104.65 193.786 105.474 193.468 106.109 193.245C106.431 193.132 106.695 193.046 106.903 192.985C107.01 192.953 107.099 192.93 107.172 192.913C107.219 192.897 107.275 192.895 107.312 192.89C107.349 192.885 107.37 192.879 107.405 192.877V192.877Z" fill="#00892C"/>
<path fill-rule="evenodd" clip-rule="evenodd" d="M123.421 193.845C123.62 193.86 123.551 194.036 123.295 194.342C123.039 194.649 122.599 195.086 122.086 195.627C121.573 196.168 120.989 196.81 120.546 197.526C120.176 198.125 119.905 198.777 119.864 199.46H116.774C116.859 198.735 117.236 198.049 117.758 197.428C118.38 196.69 119.193 196.039 119.99 195.503C120.787 194.967 121.565 194.548 122.174 194.263C122.782 193.979 123.223 193.83 123.421 193.845V193.845Z" fill="#00892C"/>
<path fill-rule="evenodd" clip-rule="evenodd" d="M45.6395 193.751C45.8701 193.751 46.0865 193.893 46.2975 194.144C46.5086 194.396 46.7188 194.758 46.9243 195.208C47.1298 195.658 47.3252 196.194 47.4779 196.793C47.6306 197.392 47.7363 198.053 47.6764 198.751C47.6746 198.774 47.6683 198.796 47.666 198.819C47.6549 198.94 47.6354 199.06 47.6137 199.178H44.2711C44.2886 199.054 44.3101 198.93 44.3233 198.803C44.3254 198.781 44.3317 198.76 44.3337 198.737C44.3938 198.057 44.3904 197.404 44.4068 196.809C44.4233 196.213 44.4563 195.675 44.5531 195.222C44.6499 194.768 44.8031 194.401 44.9918 194.147C45.1806 193.893 45.4088 193.751 45.6395 193.751V193.751Z" fill="#00892C"/>
<path fill-rule="evenodd" clip-rule="evenodd" d="M68.6463 194.238C68.8512 194.252 68.8353 194.405 68.695 194.667C68.5547 194.93 68.2889 195.304 68.0127 195.767C67.7365 196.229 67.4572 196.78 67.233 197.395C67.0353 197.937 66.8864 198.53 66.7748 199.151H63.6558C63.7841 198.507 64.0254 197.889 64.3771 197.327C64.7703 196.698 65.2929 196.136 65.8586 195.673C66.4243 195.209 67.031 194.843 67.5351 194.597C68.0392 194.351 68.4413 194.225 68.6463 194.238Z" fill="#00892C"/>
<path fill-rule="evenodd" clip-rule="evenodd" d="M119.564 199.945C119.573 199.793 119.577 199.641 119.564 199.487C119.554 199.379 119.531 199.269 119.509 199.159C119.376 198.486 119.011 197.839 118.386 197.247C117.761 196.655 116.881 196.118 115.809 195.649C114.831 195.214 113.695 194.838 112.55 194.528C111.405 194.218 110.247 193.974 109.225 193.783C106.914 193.445 105.591 193.214 105.712 193.149C105.841 193.084 107.422 193.195 110.161 193.452C111.418 193.613 112.855 193.844 114.301 194.156C115.747 194.469 117.193 194.865 118.452 195.338C119.777 195.842 120.884 196.427 121.667 197.069C122.45 197.711 122.915 198.409 123.043 199.128C123.064 199.245 123.072 199.362 123.076 199.477C123.083 199.635 123.073 199.79 123.054 199.945H119.564H119.564Z" fill="#00892C"/>
<path fill-rule="evenodd" clip-rule="evenodd" d="M131.047 199.945C131.121 199.795 131.205 199.644 131.267 199.492C131.637 198.589 131.755 197.712 131.649 196.885C131.525 195.917 131.09 195.014 130.504 194.211C129.918 193.407 129.187 192.703 128.507 192.118C127.828 191.533 127.212 191.068 126.834 190.742C126.455 190.417 126.313 190.23 126.555 190.205C126.797 190.181 127.398 190.32 128.228 190.61C129.058 190.901 130.122 191.344 131.208 191.922C132.294 192.5 133.392 193.216 134.291 194.047C135.19 194.877 135.881 195.822 136.156 196.843C136.389 197.714 136.337 198.638 135.95 199.585C135.901 199.706 135.848 199.825 135.789 199.945H131.047V199.945Z" fill="#00892C"/>
<path fill-rule="evenodd" clip-rule="evenodd" d="M141.057 199.945C141.998 199.309 142.971 198.704 143.865 198.137C144.829 197.526 145.7 196.955 146.409 196.432C146.822 196.127 147.184 195.838 147.477 195.569C147.77 195.3 147.991 195.052 148.159 194.824C148.324 194.599 148.431 194.395 148.501 194.217C148.571 194.038 148.6 193.887 148.622 193.761C148.643 193.635 148.664 193.535 148.699 193.467C148.734 193.398 148.789 193.361 148.886 193.356C148.983 193.351 149.119 193.38 149.271 193.443C149.424 193.506 149.596 193.603 149.756 193.732C149.916 193.861 150.056 194.021 150.152 194.212C150.249 194.403 150.291 194.622 150.262 194.865C150.235 195.111 150.143 195.381 149.965 195.67C149.788 195.96 149.531 196.269 149.205 196.591C148.651 197.142 147.908 197.737 147.036 198.363C146.329 198.871 145.53 199.402 144.735 199.945H141.057Z" fill="#00892C"/>
<path fill-rule="evenodd" clip-rule="evenodd" d="M192.808 199.945C192.788 199.831 192.76 199.719 192.742 199.604C192.74 199.592 192.744 199.58 192.742 199.569C192.593 198.597 192.522 197.669 192.438 196.82C192.354 195.972 192.248 195.203 192.095 194.558C191.942 193.913 191.744 193.392 191.5 193.031C191.256 192.669 190.973 192.469 190.681 192.469C190.389 192.469 190.11 192.668 189.848 193.028C189.587 193.387 189.338 193.906 189.109 194.549C188.879 195.193 188.67 195.961 188.54 196.815C188.411 197.669 188.364 198.61 188.514 199.601C188.516 199.612 188.512 199.624 188.514 199.635C188.53 199.74 188.559 199.842 188.58 199.945H192.808V199.945Z" fill="#00892C"/>
<path fill-rule="evenodd" clip-rule="evenodd" d="M181.742 199.945C181.653 199.458 181.463 198.991 181.171 198.564C180.817 198.045 180.319 197.584 179.766 197.208C179.213 196.832 178.614 196.54 178.116 196.347C177.618 196.153 177.231 196.058 177.047 196.075C176.863 196.091 176.9 196.218 177.065 196.43C177.23 196.642 177.512 196.941 177.79 197.313C178.068 197.686 178.335 198.131 178.524 198.631C178.678 199.037 178.776 199.481 178.842 199.945H181.742V199.945Z" fill="#00892C"/>
<path fill-rule="evenodd" clip-rule="evenodd" d="M204.469 192.073C204.36 192.073 204.183 192.103 203.952 192.165C203.687 192.235 203.351 192.348 202.983 192.5C202.614 192.651 202.217 192.842 201.838 193.073C201.458 193.305 201.101 193.577 200.825 193.884C200.571 194.164 200.39 194.474 200.296 194.807C200.202 195.14 200.2 195.497 200.307 195.87C200.466 196.421 200.833 197.006 201.408 197.611C201.983 198.216 202.764 198.84 203.654 199.472C203.836 199.601 204.02 199.727 204.205 199.853C204.277 199.903 204.352 199.951 204.425 200H208.103C207.917 199.873 207.736 199.75 207.552 199.621C207.374 199.497 207.201 199.372 207.024 199.245C206.154 198.625 205.37 198.022 204.744 197.447C204.119 196.872 203.656 196.325 203.379 195.81C203.191 195.462 203.079 195.129 203.049 194.819C203.019 194.509 203.07 194.221 203.17 193.956C203.386 193.38 203.856 192.918 204.194 192.598C204.363 192.439 204.493 192.313 204.557 192.225C204.622 192.136 204.616 192.086 204.513 192.075C204.5 192.074 204.485 192.073 204.469 192.073L204.469 192.073Z" fill="#00892C"/>
<path fill-rule="evenodd" clip-rule="evenodd" d="M162.602 192.128C162.642 192.126 162.696 192.129 162.734 192.142C162.773 192.155 162.791 192.18 162.8 192.197C162.82 192.228 162.822 192.267 162.8 192.313C162.758 192.403 162.634 192.524 162.457 192.668C162.104 192.955 161.51 193.349 160.795 193.829C159.383 194.777 157.466 196.079 155.979 197.614C155.257 198.36 154.653 199.163 154.237 200H149.976C150.428 199.085 151.189 198.213 152.113 197.414C153.027 196.623 154.101 195.903 155.2 195.265C156.3 194.628 157.42 194.074 158.446 193.618C159.489 193.155 160.421 192.796 161.138 192.544C161.501 192.416 161.8 192.318 162.035 192.249C162.155 192.213 162.256 192.188 162.338 192.168C162.392 192.15 162.455 192.148 162.497 192.142C162.538 192.137 162.562 192.13 162.602 192.128V192.128Z" fill="#00892C"/>
<path fill-rule="evenodd" clip-rule="evenodd" d="M170.346 193.657C170.57 193.673 170.492 193.873 170.203 194.219C169.913 194.565 169.417 195.059 168.837 195.67C168.258 196.281 167.598 197.006 167.098 197.816C166.679 198.492 166.373 199.228 166.327 200H162.836C162.933 199.181 163.358 198.407 163.949 197.705C164.65 196.87 165.57 196.136 166.47 195.53C167.37 194.925 168.249 194.451 168.936 194.129C169.624 193.808 170.122 193.64 170.346 193.657Z" fill="#00892C"/>
<path fill-rule="evenodd" clip-rule="evenodd" d="M214.24 193.812C213.979 193.812 213.735 193.972 213.496 194.256C213.258 194.541 213.02 194.95 212.788 195.458C212.556 195.966 212.335 196.572 212.163 197.248C211.99 197.925 211.871 198.672 211.939 199.46C211.941 199.486 211.948 199.512 211.95 199.538C211.963 199.674 211.985 199.809 212.009 199.943H215.785C215.766 199.803 215.741 199.662 215.726 199.52C215.724 199.494 215.717 199.47 215.715 199.445C215.647 198.676 215.651 197.939 215.632 197.267C215.613 196.594 215.576 195.986 215.467 195.473C215.357 194.961 215.184 194.546 214.971 194.259C214.758 193.972 214.5 193.812 214.24 193.812V193.812Z" fill="#00892C"/>
<path fill-rule="evenodd" clip-rule="evenodd" d="M217.704 194.45C217.473 194.466 217.491 194.638 217.649 194.935C217.808 195.232 218.108 195.654 218.42 196.176C218.732 196.698 219.047 197.321 219.301 198.016C219.524 198.628 219.692 199.298 219.818 200H223.342C223.197 199.272 222.924 198.574 222.527 197.939C222.083 197.228 221.492 196.594 220.853 196.07C220.214 195.546 219.529 195.133 218.96 194.855C218.39 194.577 217.936 194.434 217.704 194.45Z" fill="#00892C"/>
<path fill-rule="evenodd" clip-rule="evenodd" d="M119.564 199.945C119.573 199.793 119.577 199.641 119.564 199.487C119.554 199.379 119.531 199.269 119.509 199.159C119.376 198.486 119.011 197.839 118.386 197.247C117.761 196.655 116.881 196.118 115.809 195.649C114.831 195.214 113.695 194.838 112.55 194.528C111.405 194.218 110.247 193.974 109.225 193.783C106.914 193.445 105.591 193.214 105.712 193.149C105.841 193.084 107.422 193.195 110.161 193.452C111.418 193.613 112.855 193.844 114.301 194.156C115.747 194.469 117.193 194.865 118.452 195.338C119.777 195.842 120.884 196.427 121.667 197.069C122.45 197.711 122.915 198.409 123.043 199.128C123.064 199.245 123.072 199.362 123.076 199.477C123.083 199.635 123.073 199.79 123.054 199.945H119.564H119.564Z" fill="#00892C"/>
<path fill-rule="evenodd" clip-rule="evenodd" d="M131.047 199.945C131.121 199.795 131.205 199.644 131.267 199.492C131.637 198.589 131.755 197.712 131.649 196.885C131.525 195.917 131.09 195.014 130.504 194.211C129.918 193.407 129.187 192.703 128.507 192.118C127.828 191.533 127.212 191.068 126.834 190.742C126.455 190.417 126.313 190.23 126.555 190.205C126.797 190.181 127.398 190.32 128.228 190.61C129.058 190.901 130.122 191.344 131.208 191.922C132.294 192.5 133.392 193.216 134.291 194.047C135.19 194.877 135.881 195.822 136.156 196.843C136.389 197.714 136.337 198.638 135.95 199.585C135.901 199.706 135.848 199.825 135.789 199.945H131.047V199.945Z" fill="#00892C"/>
<path fill-rule="evenodd" clip-rule="evenodd" d="M141.057 199.945C141.998 199.309 142.971 198.704 143.865 198.137C144.829 197.526 145.7 196.955 146.409 196.432C146.822 196.127 147.184 195.838 147.477 195.569C147.77 195.3 147.991 195.052 148.159 194.824C148.324 194.599 148.431 194.395 148.501 194.217C148.571 194.038 148.6 193.887 148.622 193.761C148.643 193.635 148.664 193.535 148.699 193.467C148.734 193.398 148.789 193.361 148.886 193.356C148.983 193.351 149.119 193.38 149.271 193.443C149.424 193.506 149.596 193.603 149.756 193.732C149.916 193.861 150.056 194.021 150.152 194.212C150.249 194.403 150.291 194.622 150.262 194.865C150.235 195.111 150.143 195.381 149.965 195.67C149.788 195.96 149.531 196.269 149.205 196.591C148.651 197.142 147.908 197.737 147.036 198.363C146.329 198.871 145.53 199.402 144.735 199.945H141.057Z" fill="#00892C"/>
<path fill-rule="evenodd" clip-rule="evenodd" d="M192.808 199.945C192.788 199.831 192.76 199.719 192.742 199.604C192.74 199.592 192.744 199.58 192.742 199.569C192.593 198.597 192.522 197.669 192.438 196.82C192.354 195.972 192.248 195.203 192.095 194.558C191.942 193.913 191.744 193.392 191.5 193.031C191.256 192.669 190.973 192.469 190.681 192.469C190.389 192.469 190.11 192.668 189.848 193.028C189.587 193.387 189.338 193.906 189.109 194.549C188.879 195.193 188.67 195.961 188.54 196.815C188.411 197.669 188.364 198.61 188.514 199.601C188.516 199.612 188.512 199.624 188.514 199.635C188.53 199.74 188.559 199.842 188.58 199.945H192.808V199.945Z" fill="#00892C"/>
<path fill-rule="evenodd" clip-rule="evenodd" d="M181.742 199.945C181.653 199.458 181.463 198.991 181.171 198.564C180.817 198.045 180.319 197.584 179.766 197.208C179.213 196.832 178.614 196.54 178.116 196.347C177.618 196.153 177.231 196.058 177.047 196.075C176.863 196.091 176.9 196.218 177.065 196.43C177.23 196.642 177.512 196.941 177.79 197.313C178.068 197.686 178.335 198.131 178.524 198.631C178.678 199.037 178.776 199.481 178.842 199.945H181.742V199.945Z" fill="#00892C"/>
<path fill-rule="evenodd" clip-rule="evenodd" d="M204.469 192.073C204.36 192.073 204.183 192.103 203.952 192.165C203.687 192.235 203.351 192.348 202.983 192.5C202.614 192.651 202.217 192.842 201.838 193.073C201.458 193.305 201.101 193.577 200.825 193.884C200.571 194.164 200.39 194.474 200.296 194.807C200.202 195.14 200.2 195.497 200.307 195.87C200.466 196.421 200.833 197.006 201.408 197.611C201.983 198.216 202.764 198.84 203.654 199.472C203.836 199.601 204.02 199.727 204.205 199.853C204.277 199.903 204.352 199.951 204.425 200H208.103C207.917 199.873 207.736 199.75 207.552 199.621C207.374 199.497 207.201 199.372 207.024 199.245C206.154 198.625 205.37 198.022 204.744 197.447C204.119 196.872 203.656 196.325 203.379 195.81C203.191 195.462 203.079 195.129 203.049 194.819C203.019 194.509 203.07 194.221 203.17 193.956C203.386 193.38 203.856 192.918 204.194 192.598C204.363 192.439 204.493 192.313 204.557 192.225C204.622 192.136 204.616 192.086 204.513 192.075C204.5 192.074 204.485 192.073 204.469 192.073L204.469 192.073Z" fill="#00892C"/>
<path fill-rule="evenodd" clip-rule="evenodd" d="M162.602 192.128C162.642 192.126 162.696 192.129 162.734 192.142C162.773 192.155 162.791 192.18 162.8 192.197C162.82 192.228 162.822 192.267 162.8 192.313C162.758 192.403 162.634 192.524 162.457 192.668C162.104 192.955 161.51 193.349 160.795 193.829C159.383 194.777 157.466 196.079 155.979 197.614C155.257 198.36 154.653 199.163 154.237 200H149.976C150.428 199.085 151.189 198.213 152.113 197.414C153.027 196.623 154.101 195.903 155.2 195.265C156.3 194.628 157.42 194.074 158.446 193.618C159.489 193.155 160.421 192.796 161.138 192.544C161.501 192.416 161.8 192.318 162.035 192.249C162.155 192.213 162.256 192.188 162.338 192.168C162.392 192.15 162.455 192.148 162.497 192.142C162.538 192.137 162.562 192.13 162.602 192.128V192.128Z" fill="#00892C"/>
<path fill-rule="evenodd" clip-rule="evenodd" d="M170.346 193.657C170.57 193.673 170.492 193.873 170.203 194.219C169.913 194.565 169.417 195.059 168.837 195.67C168.258 196.281 167.598 197.006 167.098 197.816C166.679 198.492 166.373 199.228 166.327 200H162.836C162.933 199.181 163.358 198.407 163.949 197.705C164.65 196.87 165.57 196.136 166.47 195.53C167.37 194.925 168.249 194.451 168.936 194.129C169.624 193.808 170.122 193.64 170.346 193.657Z" fill="#00892C"/>
<path fill-rule="evenodd" clip-rule="evenodd" d="M214.24 193.812C213.979 193.812 213.735 193.972 213.496 194.256C213.258 194.541 213.02 194.95 212.788 195.458C212.556 195.966 212.335 196.572 212.163 197.248C211.99 197.925 211.871 198.672 211.939 199.46C211.941 199.486 211.948 199.512 211.95 199.538C211.963 199.674 211.985 199.809 212.009 199.943H215.785C215.766 199.803 215.741 199.662 215.726 199.52C215.724 199.494 215.717 199.47 215.715 199.445C215.647 198.676 215.651 197.939 215.632 197.267C215.613 196.594 215.576 195.986 215.467 195.473C215.357 194.961 215.184 194.546 214.971 194.259C214.758 193.972 214.5 193.812 214.24 193.812V193.812Z" fill="#00892C"/>
<path fill-rule="evenodd" clip-rule="evenodd" d="M217.704 194.45C217.473 194.466 217.491 194.638 217.649 194.935C217.808 195.232 218.108 195.654 218.42 196.176C218.732 196.698 219.047 197.321 219.301 198.016C219.524 198.628 219.692 199.298 219.818 200H223.342C223.197 199.272 222.924 198.574 222.527 197.939C222.083 197.228 221.492 196.594 220.853 196.07C220.214 195.546 219.529 195.133 218.96 194.855C218.39 194.577 217.936 194.434 217.704 194.45Z" fill="#00892C"/>
<path fill-rule="evenodd" clip-rule="evenodd" d="M122.404 199.172C122.413 199.016 122.417 198.86 122.404 198.702C122.394 198.59 122.37 198.477 122.348 198.365C122.211 197.674 121.836 197.009 121.194 196.402C120.552 195.794 119.649 195.241 118.548 194.76C117.543 194.313 116.377 193.927 115.201 193.609C114.025 193.29 112.836 193.04 111.786 192.844C109.413 192.497 108.054 192.259 108.179 192.192C108.311 192.126 109.934 192.24 112.747 192.504C114.039 192.67 115.514 192.907 116.999 193.227C118.484 193.548 119.969 193.955 121.262 194.441C122.623 194.958 123.76 195.559 124.564 196.218C125.368 196.878 125.845 197.595 125.977 198.333C125.999 198.453 126.007 198.573 126.011 198.692C126.018 198.854 126.007 199.013 125.989 199.172H122.404H122.404Z" fill="#00892C"/>
<path fill-rule="evenodd" clip-rule="evenodd" d="M133.071 199.172C133.164 198.996 133.267 198.82 133.344 198.642C133.804 197.586 133.95 196.561 133.818 195.593C133.665 194.461 133.124 193.406 132.397 192.466C131.669 191.526 130.762 190.702 129.918 190.018C129.075 189.335 128.31 188.79 127.841 188.409C127.371 188.029 127.194 187.811 127.495 187.782C127.795 187.753 128.542 187.916 129.572 188.255C130.602 188.595 131.923 189.113 133.272 189.789C134.62 190.465 135.982 191.303 137.099 192.274C138.215 193.245 139.072 194.35 139.413 195.544C139.702 196.562 139.638 197.643 139.158 198.751C139.096 198.893 139.031 199.032 138.957 199.172H133.071V199.172Z" fill="#00892C"/>
<path fill-rule="evenodd" clip-rule="evenodd" d="M144.477 199.172C145.443 198.519 146.442 197.898 147.36 197.315C148.35 196.687 149.244 196.102 149.972 195.565C150.397 195.251 150.768 194.954 151.069 194.678C151.37 194.402 151.598 194.147 151.77 193.913C151.939 193.682 152.049 193.472 152.121 193.289C152.193 193.106 152.223 192.951 152.245 192.821C152.267 192.692 152.288 192.59 152.324 192.519C152.36 192.449 152.417 192.41 152.517 192.405C152.616 192.4 152.756 192.43 152.912 192.495C153.069 192.559 153.246 192.659 153.41 192.792C153.574 192.924 153.718 193.088 153.817 193.284C153.916 193.48 153.96 193.706 153.93 193.955C153.902 194.208 153.807 194.485 153.625 194.782C153.442 195.079 153.179 195.397 152.844 195.728C152.275 196.294 151.512 196.905 150.617 197.548C149.891 198.069 149.07 198.614 148.254 199.172H144.477V199.172Z" fill="#00892C"/>
<path fill-rule="evenodd" clip-rule="evenodd" d="M188.974 199.172C188.953 199.055 188.925 198.94 188.906 198.821C188.904 198.81 188.908 198.798 188.906 198.786C188.753 197.787 188.68 196.835 188.594 195.963C188.507 195.092 188.398 194.302 188.241 193.64C188.084 192.978 187.881 192.442 187.63 192.071C187.38 191.7 187.089 191.495 186.789 191.495C186.49 191.495 186.203 191.699 185.934 192.068C185.665 192.437 185.41 192.971 185.174 193.631C184.938 194.292 184.724 195.08 184.591 195.957C184.458 196.834 184.41 197.801 184.564 198.818C184.566 198.83 184.562 198.842 184.564 198.854C184.58 198.961 184.611 199.066 184.632 199.172H188.974H188.974Z" fill="#00892C"/>
<path fill-rule="evenodd" clip-rule="evenodd" d="M177.61 199.172C177.518 198.672 177.323 198.193 177.023 197.753C176.659 197.221 176.148 196.748 175.58 196.361C175.012 195.975 174.397 195.675 173.886 195.477C173.374 195.278 172.976 195.181 172.788 195.197C172.599 195.214 172.636 195.344 172.806 195.562C172.976 195.78 173.266 196.087 173.551 196.469C173.836 196.852 174.11 197.309 174.305 197.823C174.463 198.24 174.563 198.695 174.631 199.172H177.61V199.172Z" fill="#00892C"/>
<path fill-rule="evenodd" clip-rule="evenodd" d="M209.598 191.088C209.486 191.087 209.304 191.118 209.067 191.182C208.795 191.255 208.45 191.37 208.071 191.526C207.693 191.682 207.285 191.878 206.895 192.115C206.506 192.353 206.14 192.633 205.855 192.947C205.595 193.236 205.409 193.553 205.312 193.895C205.216 194.238 205.214 194.604 205.324 194.987C205.487 195.553 205.864 196.153 206.454 196.775C207.045 197.396 207.847 198.038 208.761 198.686C208.948 198.819 209.136 198.948 209.327 199.077C209.401 199.128 209.478 199.178 209.553 199.229H213.33C213.139 199.098 212.953 198.972 212.764 198.84C212.581 198.712 212.403 198.583 212.221 198.454C211.329 197.817 210.523 197.197 209.881 196.607C209.238 196.016 208.763 195.454 208.478 194.925C208.285 194.568 208.17 194.226 208.139 193.908C208.108 193.589 208.161 193.293 208.264 193.021C208.486 192.43 208.968 191.956 209.315 191.627C209.489 191.463 209.622 191.334 209.688 191.244C209.754 191.153 209.748 191.101 209.643 191.09C209.63 191.089 209.614 191.088 209.598 191.088L209.598 191.088Z" fill="#00892C"/>
<path fill-rule="evenodd" clip-rule="evenodd" d="M191.305 191.144C191.264 191.142 191.209 191.146 191.17 191.159C191.13 191.172 191.112 191.198 191.102 191.215C191.082 191.247 191.08 191.287 191.102 191.334C191.146 191.426 191.272 191.551 191.454 191.699C191.816 191.993 192.427 192.398 193.161 192.892C194.611 193.865 196.579 195.201 198.107 196.778C198.849 197.544 199.469 198.369 199.896 199.229H204.272C203.808 198.289 203.026 197.394 202.077 196.573C201.138 195.761 200.035 195.021 198.906 194.366C197.777 193.711 196.627 193.143 195.573 192.675C194.502 192.199 193.545 191.83 192.809 191.571C192.436 191.44 192.129 191.34 191.888 191.269C191.764 191.232 191.661 191.206 191.576 191.186C191.521 191.167 191.456 191.165 191.414 191.159C191.371 191.153 191.346 191.146 191.305 191.144V191.144Z" fill="#00892C"/>
<path fill-rule="evenodd" clip-rule="evenodd" d="M165.906 192.714C166.136 192.731 166.056 192.936 165.759 193.291C165.462 193.647 164.952 194.155 164.357 194.782C163.762 195.409 163.084 196.154 162.57 196.985C162.141 197.68 161.826 198.436 161.779 199.229H158.194C158.293 198.387 158.73 197.592 159.336 196.871C160.057 196.015 161.001 195.26 161.926 194.638C162.85 194.017 163.753 193.53 164.459 193.2C165.164 192.87 165.676 192.697 165.906 192.714Z" fill="#00892C"/>
<path fill-rule="evenodd" clip-rule="evenodd" d="M219.632 192.874C219.364 192.874 219.113 193.038 218.868 193.33C218.623 193.622 218.38 194.042 218.141 194.564C217.903 195.086 217.676 195.708 217.499 196.403C217.322 197.097 217.199 197.865 217.269 198.674C217.271 198.701 217.278 198.727 217.281 198.754C217.294 198.893 217.316 199.033 217.341 199.17H221.219C221.199 199.026 221.174 198.882 221.159 198.735C221.156 198.709 221.149 198.684 221.147 198.658C221.077 197.869 221.081 197.112 221.062 196.421C221.043 195.731 221.004 195.106 220.892 194.58C220.78 194.054 220.602 193.627 220.383 193.333C220.164 193.038 219.899 192.874 219.632 192.874V192.874Z" fill="#00892C"/>
<path fill-rule="evenodd" clip-rule="evenodd" d="M223.19 193.529C222.952 193.545 222.971 193.722 223.133 194.027C223.296 194.332 223.604 194.766 223.925 195.302C224.245 195.838 224.569 196.477 224.829 197.191C225.059 197.819 225.232 198.507 225.361 199.229H228.979C228.831 198.481 228.551 197.764 228.143 197.112C227.686 196.382 227.08 195.731 226.424 195.193C225.768 194.655 225.064 194.23 224.479 193.945C223.894 193.66 223.428 193.513 223.19 193.529V193.529Z" fill="#00892C"/>
<path fill-rule="evenodd" clip-rule="evenodd" d="M129.481 199.411C129.489 199.277 129.492 199.143 129.481 199.006C129.473 198.91 129.452 198.813 129.433 198.716C129.315 198.12 128.992 197.547 128.438 197.023C127.885 196.499 127.107 196.023 126.158 195.608C125.291 195.223 124.286 194.89 123.273 194.616C122.259 194.341 121.234 194.126 120.329 193.956C118.284 193.658 117.112 193.453 117.22 193.395C117.333 193.338 118.733 193.436 121.157 193.664C122.27 193.806 123.542 194.011 124.822 194.287C126.102 194.564 127.383 194.914 128.497 195.333C129.67 195.779 130.65 196.297 131.343 196.865C132.036 197.434 132.447 198.052 132.561 198.688C132.58 198.791 132.587 198.895 132.591 198.997C132.597 199.137 132.587 199.274 132.571 199.411H129.481H129.481Z" fill="#00892C"/>
<path fill-rule="evenodd" clip-rule="evenodd" d="M139.998 199.411C140.064 199.278 140.138 199.145 140.193 199.01C140.521 198.211 140.625 197.435 140.531 196.702C140.422 195.845 140.036 195.047 139.518 194.335C138.999 193.623 138.352 193 137.75 192.483C137.149 191.965 136.604 191.553 136.269 191.265C135.934 190.977 135.808 190.812 136.022 190.79C136.236 190.768 136.769 190.891 137.503 191.148C138.238 191.405 139.18 191.797 140.141 192.309C141.103 192.821 142.074 193.455 142.87 194.19C143.667 194.925 144.278 195.762 144.521 196.665C144.727 197.436 144.681 198.254 144.339 199.093C144.295 199.2 144.248 199.305 144.196 199.411H139.998V199.411Z" fill="#00892C"/>
<path fill-rule="evenodd" clip-rule="evenodd" d="M148.508 199.411C149.34 198.849 150.201 198.313 150.993 197.811C151.846 197.27 152.617 196.765 153.245 196.302C153.611 196.031 153.931 195.776 154.19 195.538C154.449 195.3 154.646 195.08 154.794 194.878C154.94 194.679 155.035 194.498 155.097 194.34C155.158 194.183 155.185 194.048 155.204 193.937C155.223 193.826 155.241 193.737 155.272 193.677C155.303 193.616 155.352 193.583 155.438 193.579C155.523 193.574 155.644 193.6 155.779 193.655C155.914 193.711 156.066 193.797 156.208 193.912C156.349 194.026 156.473 194.167 156.559 194.336C156.644 194.505 156.682 194.699 156.656 194.915C156.632 195.132 156.55 195.371 156.393 195.627C156.236 195.883 156.008 196.158 155.72 196.443C155.229 196.93 154.572 197.457 153.8 198.011C153.174 198.461 152.467 198.931 151.763 199.411H148.508V199.411Z" fill="#00892C"/>
<path fill-rule="evenodd" clip-rule="evenodd" d="M187.125 199.411C187.107 199.311 187.083 199.211 187.066 199.109C187.065 199.099 187.068 199.088 187.066 199.078C186.934 198.218 186.872 197.396 186.797 196.645C186.723 195.894 186.629 195.214 186.493 194.643C186.358 194.072 186.183 193.61 185.967 193.291C185.751 192.971 185.5 192.794 185.242 192.794C184.983 192.794 184.737 192.97 184.505 193.288C184.273 193.606 184.053 194.066 183.85 194.635C183.646 195.204 183.462 195.884 183.347 196.64C183.232 197.396 183.191 198.23 183.324 199.107C183.325 199.117 183.322 199.127 183.324 199.137C183.338 199.23 183.364 199.32 183.382 199.411H187.125V199.411Z" fill="#00892C"/>
<path fill-rule="evenodd" clip-rule="evenodd" d="M177.329 199.411C177.25 198.98 177.082 198.567 176.824 198.188C176.51 197.73 176.069 197.322 175.58 196.988C175.09 196.655 174.56 196.397 174.119 196.226C173.679 196.055 173.335 195.971 173.173 195.985C173.01 196 173.042 196.112 173.189 196.3C173.335 196.488 173.585 196.752 173.831 197.082C174.076 197.411 174.313 197.806 174.481 198.248C174.617 198.608 174.703 199 174.761 199.411H177.329H177.329Z" fill="#00892C"/>
<path fill-rule="evenodd" clip-rule="evenodd" d="M204.641 192.443C204.544 192.442 204.387 192.469 204.183 192.524C203.948 192.587 203.651 192.686 203.325 192.821C202.999 192.955 202.647 193.124 202.311 193.328C201.976 193.533 201.66 193.774 201.414 194.046C201.19 194.294 201.03 194.568 200.947 194.863C200.863 195.158 200.862 195.474 200.956 195.804C201.097 196.291 201.422 196.809 201.931 197.345C202.44 197.881 203.131 198.433 203.919 198.993C204.08 199.107 204.243 199.218 204.407 199.33C204.471 199.374 204.537 199.416 204.602 199.46H207.857C207.693 199.348 207.533 199.238 207.37 199.125C207.212 199.014 207.059 198.904 206.902 198.792C206.132 198.243 205.438 197.709 204.884 197.2C204.331 196.691 203.921 196.207 203.676 195.751C203.509 195.443 203.41 195.148 203.383 194.874C203.357 194.599 203.402 194.344 203.491 194.11C203.682 193.599 204.098 193.191 204.397 192.908C204.547 192.767 204.662 192.655 204.719 192.577C204.776 192.499 204.77 192.454 204.68 192.445C204.668 192.444 204.654 192.443 204.641 192.443L204.641 192.443Z" fill="#00892C"/>
<path fill-rule="evenodd" clip-rule="evenodd" d="M188.873 192.491C188.837 192.49 188.79 192.493 188.756 192.504C188.722 192.516 188.706 192.537 188.697 192.553C188.68 192.58 188.678 192.615 188.697 192.655C188.735 192.735 188.844 192.842 189.001 192.97C189.313 193.224 189.84 193.572 190.473 193.998C191.722 194.836 193.419 195.989 194.736 197.348C195.375 198.008 195.91 198.719 196.277 199.46H200.05C199.65 198.65 198.976 197.878 198.158 197.171C197.349 196.471 196.398 195.833 195.425 195.269C194.452 194.704 193.46 194.214 192.552 193.811C191.628 193.401 190.804 193.083 190.169 192.86C189.847 192.746 189.583 192.66 189.375 192.599C189.269 192.567 189.179 192.544 189.106 192.527C189.059 192.511 189.003 192.509 188.966 192.504C188.929 192.499 188.908 192.493 188.873 192.491Z" fill="#00892C"/>
<path fill-rule="evenodd" clip-rule="evenodd" d="M167.241 193.845C167.439 193.86 167.37 194.036 167.114 194.342C166.858 194.649 166.418 195.086 165.906 195.627C165.393 196.168 164.809 196.81 164.366 197.526C163.995 198.125 163.724 198.777 163.683 199.46H160.593C160.679 198.735 161.055 198.049 161.578 197.428C162.199 196.69 163.013 196.039 163.81 195.503C164.607 194.967 165.385 194.548 165.993 194.263C166.602 193.979 167.043 193.83 167.241 193.845V193.845Z" fill="#00892C"/>
<path fill-rule="evenodd" clip-rule="evenodd" d="M213.29 193.982C213.059 193.982 212.843 194.124 212.632 194.376C212.421 194.627 212.21 194.989 212.005 195.439C211.799 195.889 211.604 196.426 211.451 197.024C211.298 197.623 211.193 198.285 211.253 198.982C211.254 199.005 211.261 199.028 211.263 199.051C211.274 199.171 211.294 199.291 211.315 199.41H214.658C214.64 199.286 214.619 199.161 214.606 199.035C214.604 199.012 214.597 198.991 214.595 198.968C214.535 198.288 214.539 197.636 214.522 197.04C214.506 196.445 214.473 195.907 214.376 195.453C214.279 194.999 214.126 194.632 213.937 194.378C213.749 194.124 213.52 193.982 213.29 193.982V193.982Z" fill="#00892C"/>
<path fill-rule="evenodd" clip-rule="evenodd" d="M216.357 194.547C216.152 194.561 216.168 194.713 216.308 194.976C216.448 195.239 216.714 195.613 216.99 196.075C217.266 196.537 217.546 197.089 217.77 197.704C217.968 198.245 218.116 198.838 218.228 199.46H221.347C221.219 198.815 220.977 198.198 220.626 197.635C220.233 197.006 219.71 196.445 219.144 195.981C218.579 195.518 217.972 195.152 217.468 194.906C216.964 194.66 216.562 194.533 216.357 194.547Z" fill="#00892C"/>
<path fill-rule="evenodd" clip-rule="evenodd" d="M169.372 199.411C169.438 199.278 169.511 199.145 169.567 199.01C169.895 198.211 169.999 197.435 169.905 196.702C169.795 195.845 169.41 195.047 168.891 194.335C168.372 193.623 167.725 193 167.124 192.483C166.522 191.965 165.977 191.553 165.642 191.265C165.307 190.977 165.181 190.812 165.395 190.79C165.609 190.768 166.142 190.891 166.877 191.148C167.611 191.405 168.553 191.797 169.515 192.309C170.476 192.821 171.448 193.455 172.244 194.19C173.04 194.925 173.651 195.762 173.894 196.665C174.1 197.436 174.055 198.254 173.712 199.093C173.668 199.2 173.622 199.305 173.569 199.411H169.372V199.411Z" fill="#00892C"/>
<path fill-rule="evenodd" clip-rule="evenodd" d="M181.866 192.443C181.77 192.442 181.613 192.469 181.408 192.524C181.174 192.587 180.876 192.686 180.551 192.821C180.225 192.955 179.872 193.124 179.537 193.328C179.201 193.533 178.885 193.774 178.64 194.046C178.416 194.294 178.255 194.568 178.172 194.863C178.089 195.158 178.087 195.474 178.182 195.804C178.323 196.291 178.648 196.809 179.157 197.345C179.666 197.881 180.357 198.433 181.145 198.993C181.306 199.107 181.468 199.218 181.632 199.33C181.697 199.374 181.763 199.416 181.827 199.46H185.083C184.919 199.348 184.758 199.238 184.596 199.125C184.438 199.014 184.285 198.904 184.128 198.792C183.358 198.243 182.664 197.709 182.11 197.2C181.556 196.691 181.147 196.207 180.901 195.751C180.735 195.443 180.636 195.148 180.609 194.874C180.582 194.599 180.628 194.344 180.716 194.11C180.908 193.599 181.323 193.191 181.623 192.908C181.772 192.767 181.887 192.655 181.944 192.577C182.001 192.499 181.996 192.454 181.905 192.445C181.894 192.444 181.88 192.443 181.866 192.443L181.866 192.443Z" fill="#00892C"/>
<path fill-rule="evenodd" clip-rule="evenodd" d="M213.11 192.877C213.145 192.876 213.193 192.878 213.227 192.89C213.261 192.901 213.277 192.923 213.285 192.938C213.303 192.965 213.304 193 213.285 193.041C213.248 193.12 213.138 193.228 212.982 193.355C212.669 193.609 212.143 193.958 211.51 194.383C210.26 195.222 208.564 196.374 207.247 197.733C206.608 198.394 206.073 199.104 205.705 199.846H201.933C202.333 199.036 203.007 198.264 203.825 197.557C204.634 196.857 205.585 196.219 206.558 195.654C207.531 195.09 208.523 194.6 209.431 194.197C210.354 193.786 211.179 193.468 211.814 193.245C212.136 193.132 212.4 193.046 212.608 192.985C212.714 192.953 212.804 192.93 212.876 192.913C212.924 192.897 212.98 192.895 213.017 192.89C213.053 192.885 213.075 192.879 213.11 192.877Z" fill="#00892C"/>
<path fill-rule="evenodd" clip-rule="evenodd" d="M229.126 193.845C229.324 193.86 229.255 194.036 228.999 194.342C228.743 194.649 228.303 195.086 227.791 195.627C227.278 196.168 226.694 196.81 226.251 197.526C225.88 198.125 225.609 198.777 225.568 199.46H222.478C222.564 198.735 222.94 198.049 223.463 197.428C224.084 196.69 224.898 196.039 225.695 195.503C226.492 194.967 227.27 194.548 227.878 194.263C228.487 193.979 228.928 193.83 229.126 193.845V193.845Z" fill="#00892C"/>
<path fill-rule="evenodd" clip-rule="evenodd" d="M197.915 193.751C197.684 193.751 197.468 193.893 197.257 194.144C197.046 194.396 196.835 194.758 196.63 195.208C196.424 195.658 196.229 196.194 196.076 196.793C195.923 197.392 195.818 198.053 195.878 198.751C195.879 198.774 195.886 198.796 195.888 198.819C195.899 198.94 195.919 199.06 195.94 199.178H199.283C199.265 199.054 199.244 198.93 199.231 198.803C199.229 198.781 199.222 198.76 199.22 198.737C199.16 198.057 199.164 197.404 199.147 196.809C199.131 196.213 199.098 195.675 199.001 195.222C198.904 194.768 198.751 194.401 198.562 194.147C198.374 193.893 198.145 193.751 197.915 193.751V193.751Z" fill="#00892C"/>
<path fill-rule="evenodd" clip-rule="evenodd" d="M174.908 194.238C174.703 194.252 174.719 194.405 174.859 194.667C174.999 194.93 175.265 195.304 175.541 195.767C175.818 196.229 176.097 196.78 176.321 197.395C176.519 197.937 176.668 198.53 176.779 199.151H179.898C179.77 198.507 179.529 197.889 179.177 197.327C178.784 196.698 178.261 196.136 177.695 195.673C177.13 195.209 176.523 194.843 176.019 194.597C175.515 194.351 175.113 194.225 174.908 194.238Z" fill="#00892C"/>
</g>
<rect x="69" y="0.00862122" width="10" height="168" fill="#633000"/>
<rect x="69" width="119" height="10" fill="#633000"/>
<rect x="72" y="54.4472" width="77" height="10" transform="rotate(-45 72 54.4472)" fill="#633000"/>
<rect x="60" y="168.009" width="28" height="32" fill="#141929"/>
<circle cx="74" cy="56.0086" r="3.5" fill="#08058F" stroke="black"/>
<circle cx="74" cy="5.00862" r="3.5" fill="#08058F" stroke="black"/>
<circle cx="125" cy="5.00862" r="3.5" fill="#08058F" stroke="black"/>
<defs>
<clipPath id="clip0_4_369">
<rect width="235" height="34" fill="white" transform="translate(0 166)"/>
</clipPath>
</defs>
</svg>
